<svg xmlns="http://www.w3.org/2000/svg" width="33.03" height="26.12" viewBox="0 0 33.03 26.12">
  <defs>
    <style>
      .cls-1 {
        fill: #fff;
        fill-rule: evenodd;
      }
    </style>
  </defs>
  <path id="CADDY_FULL.svg" data-name="CADDY FULL.svg" class="cls-1" d="M1080.73,1214.55a3.27,3.27,0,1,1-3.28,3.27A3.271,3.271,0,0,1,1080.73,1214.55Zm17.45,0a3.27,3.27,0,1,1-3.27,3.27A3.265,3.265,0,0,1,1098.18,1214.55Zm-20.73-6.55h24.54v4.02h-24.54V1208Zm4.29,1.53-4.14,1.38-4.36-13.1,4.14-1.38Zm-5.34-13.5v3.96h-7.42v-3.96h7.42Zm7.6,5.92h4.99v4.02H1084v-4.02Zm7.01,0.04h10.98v3.98h-10.98v-3.98Zm-9-7.02h11v4.02h-11v-4.02Zm12.99,0h6.99v3.99H1095v-3.99Z" transform="translate(-1068.97 -1194.97)"/>
</svg>
