<svg xmlns="http://www.w3.org/2000/svg" width="48" height="23.56" viewBox="0 0 48 23.56">
  <defs>
    <style>
      .cls-1 {
        fill: #fff;
        fill-rule: evenodd;
      }
    </style>
  </defs>
  <path id="DOWNLOAD.svg" class="cls-1" d="M559.628,1211.9c3.246,0,5.877,1.74,5.877,3.89s2.267,3.88-.979,3.88-10.776,1.05-10.776-3.88C553.75,1213.64,556.382,1211.9,559.628,1211.9Zm5.387-5.88a4.41,4.41,0,1,1-4.408,4.41A4.412,4.412,0,0,1,565.015,1206.02Zm13.714-9.79c6.763,0,12.245,3.5,12.245,7.83s-5.482,7.84-12.245,7.84-12.244-3.51-12.244-7.84S571.967,1196.23,578.729,1196.23Zm13.225,7.83c5.41,0,9.8,3.51,9.8,7.84s-4.385,7.84-9.8,7.84-9.8-3.51-9.8-7.84S586.544,1204.06,591.954,1204.06Zm-29.388,4.9h24.49v10.71h-24.49v-10.71Zm13.715,4.9h19.591v5.88H576.281v-5.88Zm-15.674,0H577.26v5.88H560.607v-5.88Zm16.4-17.63h5.006v9.79h-5.006v-9.79Zm-4.645,9.79h13.714l-6.857,7.84Z" transform="translate(-553.75 -1196.22)"/>
</svg>
