<svg xmlns="http://www.w3.org/2000/svg" width="14.44" height="14" viewBox="0 0 14.44 14">
  <defs>
    <style>
      .cls-1 {
        fill: #898989;
        fill-rule: evenodd;
      }
    </style>
  </defs>
  <path id="Google.svg" class="cls-1" d="M1296.23,1945.16h-2.26v2.26h-0.91v-2.26h-2.25v-0.9h2.25V1942h0.91v2.26h2.26v0.9Zm-7.67-2.03a2.892,2.892,0,0,1,.38.31,2.316,2.316,0,0,1,.37.39,2.879,2.879,0,0,1,.34.68,2.838,2.838,0,0,1,.13.92,2.651,2.651,0,0,1-.44,1.54,5.57,5.57,0,0,1-.44.51c-0.17.16-.36,0.32-0.55,0.48a3,3,0,0,0-.31.38,0.8,0.8,0,0,0-.16.51,0.626,0.626,0,0,0,.17.46,2.742,2.742,0,0,0,.28.3l0.63,0.5a6.629,6.629,0,0,1,1.03,1.02,2.529,2.529,0,0,1,.43,1.49,2.977,2.977,0,0,1-1.19,2.31,5.525,5.525,0,0,1-3.57,1.07,4.612,4.612,0,0,1-2.91-.8,2.15,2.15,0,0,1-.98-1.75,2.424,2.424,0,0,1,.32-1.11,2.557,2.557,0,0,1,1.11-1.07,5.678,5.678,0,0,1,1.9-.67,14.86,14.86,0,0,1,1.63-.15,5.207,5.207,0,0,1-.36-0.55,1.231,1.231,0,0,1-.18-0.68,0.907,0.907,0,0,1,.07-0.39c0.04-.11.08-0.21,0.11-0.31a4.176,4.176,0,0,1-.59.04,2.912,2.912,0,0,1-2.27-.9,2.656,2.656,0,0,1-.81-1.92,3.207,3.207,0,0,1,1.15-2.39,4.431,4.431,0,0,1,1.79-.7,7.06,7.06,0,0,1,1.52-.2h3.65l-1.08.67Zm-2.47,7.84a9.245,9.245,0,0,0-1.18.25c-0.09.04-.22,0.09-0.4,0.16a2.712,2.712,0,0,0-.52.32,1.9,1.9,0,0,0-.43.54,1.575,1.575,0,0,0-.21.83,1.828,1.828,0,0,0,.89,1.55,3.91,3.91,0,0,0,2.31.63,3.261,3.261,0,0,0,2-.56,1.664,1.664,0,0,0,.68-1.37,1.721,1.721,0,0,0-.47-1.19,11.152,11.152,0,0,0-1.52-1.18c-0.12-.01-0.26-0.02-0.42-0.02A4.813,4.813,0,0,0,1286.09,1950.97Zm1.55-6.85a1.9,1.9,0,0,0-.6-0.71,1.674,1.674,0,0,0-.98-0.33,1.831,1.831,0,0,0-1.38.46,2.112,2.112,0,0,0-.4,1.33,4.081,4.081,0,0,0,.59,2.03,2.894,2.894,0,0,0,.73.83,1.664,1.664,0,0,0,1.04.34,1.8,1.8,0,0,0,1.22-.51,1.711,1.711,0,0,0,.3-0.7,4.851,4.851,0,0,0,.04-0.6A4.65,4.65,0,0,0,1287.64,1944.12Z" transform="translate(-1281.78 -1942)"/>
</svg>
