<svg xmlns="http://www.w3.org/2000/svg" width="10.94" height="13.97" viewBox="0 0 10.94 13.97">
  <defs>
    <style>
      .cls-1 {
        fill: #898989;
        fill-rule: evenodd;
      }
    </style>
  </defs>
  <path id="Pinterest.svg" class="cls-1" d="M1317.08,1942a5.018,5.018,0,0,1,4.94,2.84,5.15,5.15,0,0,1,.34,1.11c0.04,0.19.01,0.38,0.05,0.58a2.262,2.262,0,0,1-.01.52c-0.02.2-.04,0.4-0.05,0.6a10.627,10.627,0,0,1-.29,1.26,5.579,5.579,0,0,1-1.1,1.92,3.915,3.915,0,0,1-2.13,1.21,3.2,3.2,0,0,1-1.54-.04,2.045,2.045,0,0,1-1.01-.59,2.014,2.014,0,0,0-.22-0.29v0.01c-0.19.74-.37,1.47-0.56,2.21a6.707,6.707,0,0,1-.85,1.74c-0.16.26-.33,0.5-0.51,0.74-0.05.06-.13,0.24-0.25,0.16a1.932,1.932,0,0,1-.12-0.65,7.36,7.36,0,0,1,.04-2.2c0.36-1.55.73-3.1,1.1-4.65l-0.12-.3c-0.05-.18-0.08-0.38-0.12-0.58a2.012,2.012,0,0,1-.01-0.6c0.03-.16.02-0.29,0.06-0.43a1.868,1.868,0,0,1,1.05-1.38,1.138,1.138,0,0,1,1.53,1.33,7.011,7.011,0,0,1-.14.69,17.224,17.224,0,0,0-.61,2.22,1.033,1.033,0,0,0,.15.64,1.373,1.373,0,0,0,1.56.62,1.939,1.939,0,0,0,.49-0.2,3.543,3.543,0,0,0,1.48-2.32c0.07-.24.09-0.49,0.14-0.75a4.528,4.528,0,0,0-.06-1.91,2.836,2.836,0,0,0-1.09-1.55,3.6,3.6,0,0,0-1.09-.47,4.805,4.805,0,0,0-2.39.08,3.7,3.7,0,0,0-2.61,2.98,2.984,2.984,0,0,0,.21,1.86c0.07,0.1.13,0.19,0.19,0.29a0.822,0.822,0,0,1,.23.34,0.745,0.745,0,0,1-.06.31,0.909,0.909,0,0,1-.36.77,1.162,1.162,0,0,1-.62-0.26,2.924,2.924,0,0,1-1.11-1.81c-0.06-.22-0.05-0.44-0.09-0.68a2.882,2.882,0,0,1,.01-0.88,7.593,7.593,0,0,1,.16-0.75,5.194,5.194,0,0,1,2.8-3.17,8.31,8.31,0,0,1,1.62-.48c0.24-.03.47-0.05,0.71-0.08C1316.91,1942.01,1316.99,1942,1317.08,1942Z" transform="translate(-1311.5 -1942)"/>
</svg>
