<svg xmlns="http://www.w3.org/2000/svg" width="17.25" height="14" viewBox="0 0 17.25 14">
  <defs>
    <style>
      .cls-1 {
        fill: #898989;
        fill-rule: evenodd;
      }
    </style>
  </defs>
  <path id="Twitter.svg" class="cls-1" d="M1236.76,1942a4.077,4.077,0,0,1,3.1,1.11c0.74-.25,1.49-0.51,2.24-0.77a6.073,6.073,0,0,1-1.38,1.88l1.89-.51a6.81,6.81,0,0,1-1.8,1.79,9.827,9.827,0,0,1-6.98,10.07c-2.68.89-6.89,0.36-8.44-1.19,2.15,0.07,4.13-.32,5.08-1.45a3.283,3.283,0,0,1-3.19-2.48h0.09a1.627,1.627,0,0,0,1.29-.08,3.111,3.111,0,0,1-2.59-3.07c0.03-.03-0.02-0.32,0-0.35,0.46,0.15.92,0.29,1.38,0.43v-0.08a5.7,5.7,0,0,1-1.2-1.54c-0.43-1-.18-2.75.34-3.07,1.2,1.83,4.45,3.42,7.15,3.67,0.03-.06.06-0.12,0.09-0.17A3.481,3.481,0,0,1,1236.76,1942Z" transform="translate(-1225.38 -1942)"/>
</svg>
